<svg xmlns="http://www.w3.org/2000/svg" width="42" height="42" viewBox="0 0 42 42"><path d="M13.5,33.7a13.9,13.9,0,0,1-5.1-5.1" fill="none" stroke="#fff" stroke-linecap="round" stroke-linejoin="round" stroke-width="2"/><path d="M33.9,28.9a15.7,15.7,0,0,1-4.8,4.8" fill="none" stroke="#fff" stroke-linecap="round" stroke-linejoin="round" stroke-width="2"/><path d="M29.1,8.4a15,15,0,0,1,4.8,4.9" fill="none" stroke="#fff" stroke-linecap="round" stroke-linejoin="round" stroke-width="2"/><path d="M8.5,13.4a13.3,13.3,0,0,1,5-5" fill="none" stroke="#fff" stroke-linecap="round" stroke-linejoin="round" stroke-width="2"/><path d="M21.3,6.6a2.8,2.8,0,0,1-2.8-2.8,2.8,2.8,0,1,1,5.5,0A2.8,2.8,0,0,1,21.3,6.6Z" fill="none" stroke="#fff" stroke-linecap="round" stroke-linejoin="round" stroke-width="2"/><path d="M16.9,11.2A3.4,3.4,0,0,1,20,9.1h2.5a3.4,3.4,0,0,1,3.1,2.1" fill="none" stroke="#fff" stroke-linecap="round" stroke-linejoin="round" stroke-width="2"/><path d="M5.9,21.5a2.8,2.8,0,0,1-2.8-2.8,2.8,2.8,0,1,1,5.5,0A2.8,2.8,0,0,1,5.9,21.5Z" fill="none" stroke="#fff" stroke-linecap="round" stroke-linejoin="round" stroke-width="2"/><path d="M1.5,26.1A3.4,3.4,0,0,1,4.6,24H7.1a3.4,3.4,0,0,1,3.1,2.1" fill="none" stroke="#fff" stroke-linecap="round" stroke-linejoin="round" stroke-width="2"/><path d="M36.1,21.5a2.8,2.8,0,0,1-2.7-2.8,2.8,2.8,0,1,1,5.5,0A2.8,2.8,0,0,1,36.1,21.5Z" fill="none" stroke="#fff" stroke-linecap="round" stroke-linejoin="round" stroke-width="2"/><path d="M31.8,26.1A3.4,3.4,0,0,1,34.9,24h2.5a3.4,3.4,0,0,1,3.1,2.1" fill="none" stroke="#fff" stroke-linecap="round" stroke-linejoin="round" stroke-width="2"/><path d="M21.3,36.4a2.8,2.8,0,0,1-2.8-2.8,2.8,2.8,0,1,1,5.5,0A2.8,2.8,0,0,1,21.3,36.4Z" fill="none" stroke="#fff" stroke-linecap="round" stroke-linejoin="round" stroke-width="2"/><path d="M16.9,41A3.4,3.4,0,0,1,20,38.9h2.5A3.4,3.4,0,0,1,25.6,41" fill="none" stroke="#fff" stroke-linecap="round" stroke-linejoin="round" stroke-width="2"/></svg>