<svg xmlns="http://www.w3.org/2000/svg" width="42" height="42" viewBox="0 0 42 42"><polyline points="26.5 13.3 30 16.9 35.9 11" fill="none" stroke="#fff" stroke-linecap="round" stroke-linejoin="round" stroke-width="2"/><path d="M30.9,1S25.3,5.3,20.7,5.3V16.1a7,7,0,0,0,2.5,5.5c1.6,1.2,6.5,4.3,6.7,4.5l1,.6,1-.6c.2-.2,5-3.3,6.6-4.5A6.7,6.7,0,0,0,41,16.1V5.3C36.4,5.3,30.9,1,30.9,1Z" fill="none" stroke="#fff" stroke-linecap="round" stroke-linejoin="round" stroke-width="2"/><circle cx="11.3" cy="16.7" r="3.7" fill="none" stroke="#fff" stroke-linecap="round" stroke-linejoin="round" stroke-width="2"/><rect x="1" y="24.2" width="20.6" height="16.82" rx="2.9" fill="none" stroke="#fff" stroke-linecap="round" stroke-linejoin="round" stroke-width="2"/><line x1="16.9" y1="31.7" x2="16.9" y2="41" fill="none" stroke="#fff" stroke-linecap="round" stroke-linejoin="round" stroke-width="2"/><line x1="5.7" y1="31.7" x2="5.7" y2="41" fill="none" stroke="#fff" stroke-linecap="round" stroke-linejoin="round" stroke-width="2"/></svg>