<svg xmlns="http://www.w3.org/2000/svg" width="42" height="42" viewBox="0 0 42 42"><ellipse cx="31.4" cy="14.1" rx="7.1" ry="7.1" fill="none" stroke="#fff" stroke-linecap="round" stroke-linejoin="round" stroke-width="2"/><line x1="36.5" y1="19.1" x2="41" y2="23.6" fill="none" stroke="#fff" stroke-linecap="round" stroke-linejoin="round" stroke-width="2"/><path d="M33.7,20.8V27a2.5,2.5,0,0,1-2.5,2.5H3.5A2.5,2.5,0,0,1,1,27V5.4A2.5,2.5,0,0,1,3.5,2.9H31.2a2.5,2.5,0,0,1,2.5,2.5v2" fill="none" stroke="#fff" stroke-linecap="round" stroke-linejoin="round" stroke-width="2"/><line x1="12.8" y1="39.1" x2="12.8" y2="29.6" fill="none" stroke="#fff" stroke-linecap="round" stroke-linejoin="round" stroke-width="2"/><line x1="21.9" y1="29.6" x2="21.9" y2="39.1" fill="none" stroke="#fff" stroke-linecap="round" stroke-linejoin="round" stroke-width="2"/><line x1="10.3" y1="39.1" x2="24.4" y2="39.1" fill="none" stroke="#fff" stroke-linecap="round" stroke-linejoin="round" stroke-width="2"/><line x1="1" y1="25.7" x2="33.7" y2="25.7" fill="none" stroke="#fff" stroke-linecap="round" stroke-linejoin="round" stroke-width="2"/><line x1="20.5" y1="9.7" x2="5.9" y2="9.7" fill="none" stroke="#fff" stroke-linecap="round" stroke-linejoin="round" stroke-width="2"/><line x1="18.9" y1="14.5" x2="5.9" y2="14.5" fill="none" stroke="#fff" stroke-linecap="round" stroke-linejoin="round" stroke-width="2"/><line x1="21" y1="19.3" x2="5.9" y2="19.3" fill="none" stroke="#fff" stroke-linecap="round" stroke-linejoin="round" stroke-width="2"/></svg>